<svg width="28" height="28" viewBox="0 0 28 28" fill="none" xmlns="http://www.w3.org/2000/svg">
<path d="M18.9007 9.47353C19.5712 9.47303 20.1144 8.9291 20.1139 8.25862C20.1134 7.58814 19.5694 7.045 18.899 7.0455C18.2285 7.04599 17.6853 7.58992 17.6858 8.2604C17.6863 8.93088 18.2303 9.47402 18.9007 9.47353Z" fill="#2C2C2C"/>
<path d="M13.4992 8.46982C12.4717 8.47057 11.4675 8.77599 10.6136 9.34745C9.75976 9.91891 9.0945 10.7307 8.702 11.6803C8.3095 12.6298 8.20739 13.6744 8.40858 14.682C8.60977 15.6896 9.10522 16.6149 9.83229 17.3409C10.5594 18.0669 11.4854 18.561 12.4932 18.7607C13.5011 18.9604 14.5456 18.8568 15.4945 18.4629C16.4435 18.069 17.2544 17.4025 17.8246 16.5478C18.3948 15.6931 18.6987 14.6884 18.698 13.661C18.697 12.2832 18.1487 10.9622 17.1737 9.98869C16.1987 9.01516 14.877 8.46881 13.4992 8.46982ZM13.5055 17.0371C12.8385 17.0375 12.1864 16.8402 11.6315 16.4701C11.0767 16.1 10.6441 15.5736 10.3884 14.9576C10.1327 14.3416 10.0654 13.6636 10.195 13.0093C10.3247 12.3551 10.6454 11.754 11.1167 11.282C11.588 10.81 12.1886 10.4884 12.8427 10.3578C13.4967 10.2272 14.1748 10.2935 14.7912 10.5483C15.4076 10.8031 15.9346 11.2349 16.3056 11.7892C16.6765 12.3435 16.8748 12.9953 16.8753 13.6623C16.8759 14.5567 16.5213 15.4147 15.8893 16.0476C15.2573 16.6805 14.3998 17.0364 13.5055 17.0371Z" fill="#2C2C2C"/>
<path d="M13.4969 5.36997C16.1981 5.36798 16.5185 5.37787 17.585 5.42598C18.2264 5.43312 18.8619 5.55043 19.4636 5.77279C19.9001 5.94082 20.2967 6.19838 20.6277 6.5289C20.9587 6.85943 21.2168 7.25558 21.3855 7.69188C21.6088 8.29327 21.727 8.92855 21.7351 9.56998C21.7848 10.6364 21.7951 10.9568 21.7971 13.6588C21.7991 16.3608 21.7892 16.6795 21.7411 17.746C21.7339 18.3875 21.6166 19.0229 21.3943 19.6246C21.2262 20.0612 20.9687 20.4577 20.6382 20.7887C20.3076 21.1197 19.9115 21.3779 19.4752 21.5466C18.8738 21.7698 18.2385 21.888 17.5971 21.8961C16.5306 21.9458 16.2103 21.9562 13.5091 21.9581C10.8079 21.9601 10.4875 21.9502 9.42103 21.9021C8.77958 21.895 8.14414 21.7777 7.54242 21.5553C7.10587 21.3873 6.70934 21.1297 6.37833 20.7992C6.04732 20.4687 5.78918 20.0725 5.62051 19.6362C5.39727 19.0348 5.27903 18.3996 5.27094 17.7581C5.22126 16.6917 5.21091 16.3713 5.20892 13.6701C5.20694 10.969 5.21682 10.6486 5.26494 9.58207C5.27208 8.94063 5.38939 8.30518 5.61174 7.70347C5.77978 7.26692 6.03734 6.87038 6.36786 6.53938C6.69838 6.20837 7.09454 5.95022 7.53084 5.78155C8.13223 5.55831 8.7675 5.44007 9.40893 5.43198C10.4754 5.3823 10.7957 5.37195 13.4969 5.36997V5.36997ZM13.4956 3.54726C10.748 3.54928 10.4032 3.56133 9.32413 3.61102C8.4851 3.62858 7.65512 3.78825 6.86947 4.08326C6.1975 4.34366 5.58736 4.7416 5.07815 5.25156C4.56894 5.76152 4.1719 6.37224 3.91248 7.04459C3.61854 7.83095 3.46008 8.66145 3.44385 9.50079C3.39575 10.58 3.3842 10.9231 3.38621 13.6715C3.38823 16.4199 3.40029 16.7638 3.44998 17.8429C3.46754 18.682 3.62721 19.5119 3.92221 20.2976C4.18262 20.9696 4.58056 21.5797 5.09051 22.0889C5.60047 22.5981 6.2112 22.9952 6.88355 23.2546C7.6699 23.5485 8.50041 23.707 9.33975 23.7232C10.4189 23.7713 10.7629 23.7829 13.5104 23.7809C16.258 23.7788 16.6028 23.7668 17.6819 23.7171C18.5212 23.6996 19.3515 23.5399 20.1374 23.2449C20.8094 22.9844 21.4195 22.5865 21.9287 22.0765C22.4379 21.5666 22.835 20.9559 23.0944 20.2835C23.388 19.4971 23.5462 18.6666 23.5622 17.8273C23.6103 16.7482 23.6218 16.405 23.6198 13.6566C23.6178 10.9082 23.6057 10.5643 23.556 9.48518C23.5385 8.64615 23.3788 7.81617 23.0838 7.03051C22.8234 6.35855 22.4255 5.7484 21.9155 5.2392C21.4055 4.72999 20.7948 4.33295 20.1225 4.07352C19.3361 3.77987 18.5056 3.6217 17.6663 3.60574C16.5871 3.55595 16.244 3.54524 13.4956 3.54726Z" fill="#2C2C2C"/>
</svg>
