<svg width="28" height="28" viewBox="0 0 28 28" fill="none" xmlns="http://www.w3.org/2000/svg">
<path d="M22.0818 9.15775C22.0965 9.35446 22.0967 9.55005 22.0968 9.74564C22.1012 15.7314 17.5504 22.6322 9.22423 22.6383C6.65906 22.6402 4.27545 21.8989 2.26913 20.6099C2.63336 20.6512 2.98409 20.6656 3.36291 20.6653C5.40088 20.6687 7.38063 19.9858 8.98305 18.7266C8.03816 18.7102 7.12197 18.3991 6.36242 17.8369C5.60286 17.2746 5.03786 16.4891 4.74631 15.5902C5.02624 15.6315 5.30728 15.6594 5.60179 15.6592C6.00759 15.6589 6.41559 15.6024 6.79433 15.5043C5.76874 15.2981 4.84626 14.7429 4.18374 13.9333C3.52122 13.1237 3.15956 12.1096 3.16027 11.0635L3.16022 11.0073C3.76411 11.3429 4.46457 11.5526 5.20649 11.5802C4.58466 11.1676 4.07462 10.6076 3.72187 9.94999C3.36912 9.2924 3.18463 8.55771 3.18486 7.81148C3.18424 6.97066 3.40737 6.19937 3.79918 5.52688C4.93794 6.92556 6.35779 8.06945 7.96677 8.88446C9.57575 9.69948 11.338 10.1674 13.1393 10.2581C13.0694 9.92088 13.0264 9.57132 13.0262 9.22061C13.0254 8.62592 13.1419 8.03692 13.369 7.48728C13.596 6.93764 13.9291 6.43813 14.3493 6.01732C14.7695 5.5965 15.2685 5.26263 15.8178 5.03479C16.3672 4.80694 16.956 4.68959 17.5507 4.68945C18.8546 4.6885 20.0319 5.23394 20.8599 6.11686C21.8734 5.9201 22.8452 5.54934 23.7323 5.02102C23.3952 6.06758 22.688 6.95533 21.7434 7.51796C22.6423 7.41475 23.5208 7.17768 24.3496 6.81461C23.731 7.71782 22.9643 8.51002 22.0818 9.15775Z" fill="#2C2C2C"/>
</svg>
