<svg width="27" height="28" viewBox="0 0 27 28" fill="none" xmlns="http://www.w3.org/2000/svg">
<path d="M24.2962 8.2639C24.1678 7.78896 23.9173 7.35592 23.5695 7.00789C23.2218 6.65986 22.789 6.40898 22.3141 6.28022C20.5534 5.79815 13.511 5.79545 13.511 5.79545C13.511 5.79545 6.46972 5.79276 4.70861 6.25605C4.23426 6.39145 3.80269 6.64652 3.45531 6.99677C3.10794 7.34702 2.85643 7.78069 2.72494 8.25614C2.26199 10.0168 2.26017 13.6678 2.26017 13.6678C2.26017 13.6678 2.25837 17.3369 2.72052 19.0789C2.97977 20.042 3.73909 20.8025 4.70375 21.0614C6.48241 21.5435 13.5057 21.5462 13.5057 21.5462C13.5057 21.5462 20.5481 21.5489 22.3081 21.0867C22.783 20.9575 23.2158 20.7065 23.5639 20.3587C23.912 20.0109 24.1633 19.5782 24.2929 19.1035C24.757 17.344 24.7577 13.694 24.7577 13.694C24.7577 13.694 24.7775 10.0239 24.2962 8.2639ZM11.2666 17.0436L11.2673 10.2991L17.1229 13.6727L11.2666 17.0436Z" fill="#2C2C2C"/>
</svg>
